<svg width="111" height="116" viewBox="0 0 111 116" fill="none" xmlns="http://www.w3.org/2000/svg">
<circle cx="55.1289" cy="55" r="55" fill="#D9D9D9"/>
<path d="M98.7128 59.9419C94.84 60.0386 90.9827 60.4741 87.1841 61.2437C83.3814 62.0135 79.6872 63.2554 76.1854 64.9411C72.6844 66.6397 69.4677 68.882 66.6521 71.5866C75.6122 55.5882 90.3151 45.5187 106.559 39.0811C105.256 35.6895 103.626 32.4358 101.692 29.3671C90.7422 36.4447 76.1692 43.1887 62.0828 39.535C67.4903 36.8003 72.211 32.8731 76.2773 28.4209C80.3186 23.907 83.8867 18.9818 86.9246 13.7242C85.7836 12.9038 84.6156 12.1381 83.4097 11.4161C77.3426 21.7371 68.496 33.0919 56.3185 37.4238C44.6546 31.8175 37.0301 19.5766 32.0607 8.65942C30.7918 9.25014 29.5462 9.89008 28.3242 10.5792C30.804 16.134 33.8447 21.4146 37.3978 26.337C40.983 31.194 45.2549 35.6352 50.3757 38.917C35.9811 41.0501 22.1813 32.7856 12.0207 24.5758C9.77458 27.422 7.81121 30.4852 6.15908 33.7209C21.6622 41.8541 35.2403 53.4113 42.5079 70.3012C39.9839 67.3161 37.0135 64.749 33.7046 62.6931C30.3987 60.6421 26.8529 59.016 23.1493 57.8526C19.4441 56.6757 15.6445 55.8284 11.7936 55.3202C7.95104 54.8061 4.08131 54.5267 0.205485 54.4833C0.0865217 55.8872 0.0180248 57.2965 0 58.7113C36.7057 59.1981 52.4522 77.7617 46.9366 114.501C50.4845 115.038 54.0761 115.221 57.6595 115.048C55.9994 77.9258 73.5412 61.1233 110.085 64.5418C110.214 63.1361 110.29 61.7305 110.323 60.3193C106.464 59.9557 102.587 59.8297 98.7128 59.9419ZM57.3459 78.3688C55.606 82.9873 54.3007 87.7615 53.4471 92.6279C53.1069 87.6944 52.3048 82.8046 51.0516 78.0242C49.7937 73.2457 48.041 68.6148 45.8226 64.2082C41.311 55.4052 35.0997 47.6068 27.5563 41.2743C31.9547 43.4454 36.5462 45.1907 41.2696 46.4868C45.989 47.7809 50.8302 48.5674 55.7129 48.8333C65.5117 49.2947 75.3021 47.7583 84.5021 44.3154C80.4529 47.0815 76.6691 50.2257 73.2005 53.7066C69.7325 57.1945 66.6402 61.0448 63.9754 65.1927C61.307 69.3328 59.0845 73.75 57.3459 78.3688Z" fill="black"/>
</svg>
